<mxfile host="app.diagrams.net" modified="2021-06-17T18:59:53.548Z" agent="5.0 (Macintosh)" etag="9tR0YoIxcUqleOFZhFsQ" version="14.7.3" type="github">
  <diagram id="Y-6oiYW9Oc83fr8sldhf" name="Page-1">
    <mxGraphModel dx="2066" dy="1152" grid="1" gridSize="10" guides="1" tooltips="1" connect="1" arrows="1" fold="1" page="1" pageScale="1" pageWidth="850" pageHeight="1100" math="0" shadow="0">
      <root>
        <mxCell id="0" />
        <mxCell id="1" parent="0" />
        <mxCell id="imLs1l-GsWlvEfnv6kaD-1" style="edgeStyle=orthogonalEdgeStyle;rounded=0;orthogonalLoop=1;jettySize=auto;html=1;" edge="1" parent="1" source="imLs1l-GsWlvEfnv6kaD-3" target="imLs1l-GsWlvEfnv6kaD-6">
          <mxGeometry relative="1" as="geometry">
            <Array as="points">
              <mxPoint x="589" y="660" />
            </Array>
          </mxGeometry>
        </mxCell>
        <mxCell id="imLs1l-GsWlvEfnv6kaD-2" value="&lt;font style=&quot;font-size: 12px&quot;&gt;4) Copies the file to &lt;b&gt;YYYY/MM/DD/testFile&lt;/b&gt; in &lt;/font&gt;" style="edgeLabel;html=1;align=center;verticalAlign=middle;resizable=0;points=[];" vertex="1" connectable="0" parent="imLs1l-GsWlvEfnv6kaD-1">
          <mxGeometry x="0.0713" relative="1" as="geometry">
            <mxPoint x="-64" as="offset" />
          </mxGeometry>
        </mxCell>
        <mxCell id="imLs1l-GsWlvEfnv6kaD-3" value="testable-lambda" style="points=[[0,0,0],[0.25,0,0],[0.5,0,0],[0.75,0,0],[1,0,0],[0,1,0],[0.25,1,0],[0.5,1,0],[0.75,1,0],[1,1,0],[0,0.25,0],[0,0.5,0],[0,0.75,0],[1,0.25,0],[1,0.5,0],[1,0.75,0]];outlineConnect=0;fontColor=#232F3E;gradientColor=#F78E04;gradientDirection=north;fillColor=#D05C17;strokeColor=#ffffff;dashed=0;verticalLabelPosition=bottom;verticalAlign=top;align=center;html=1;fontSize=12;fontStyle=0;aspect=fixed;shape=mxgraph.aws4.resourceIcon;resIcon=mxgraph.aws4.lambda;" vertex="1" parent="1">
          <mxGeometry x="550" y="450" width="78" height="78" as="geometry" />
        </mxCell>
        <mxCell id="imLs1l-GsWlvEfnv6kaD-4" style="edgeStyle=orthogonalEdgeStyle;rounded=0;orthogonalLoop=1;jettySize=auto;html=1;" edge="1" parent="1" source="imLs1l-GsWlvEfnv6kaD-13" target="imLs1l-GsWlvEfnv6kaD-3">
          <mxGeometry relative="1" as="geometry">
            <Array as="points">
              <mxPoint x="609" y="500" />
            </Array>
          </mxGeometry>
        </mxCell>
        <mxCell id="imLs1l-GsWlvEfnv6kaD-5" value="&lt;font style=&quot;font-size: 12px&quot;&gt;3) Triggers lambda on &lt;b&gt;ObjectCreate:*&lt;/b&gt;&lt;/font&gt;" style="edgeLabel;html=1;align=center;verticalAlign=middle;resizable=0;points=[];" vertex="1" connectable="0" parent="imLs1l-GsWlvEfnv6kaD-4">
          <mxGeometry x="-0.1897" relative="1" as="geometry">
            <mxPoint x="24" as="offset" />
          </mxGeometry>
        </mxCell>
        <mxCell id="imLs1l-GsWlvEfnv6kaD-6" value="&lt;div&gt;destination-bucket&lt;/div&gt;&lt;div&gt;&lt;b&gt;dest_bucket&lt;/b&gt;&lt;br&gt;&lt;/div&gt;" style="points=[[0,0,0],[0.25,0,0],[0.5,0,0],[0.75,0,0],[1,0,0],[0,1,0],[0.25,1,0],[0.5,1,0],[0.75,1,0],[1,1,0],[0,0.25,0],[0,0.5,0],[0,0.75,0],[1,0.25,0],[1,0.5,0],[1,0.75,0]];outlineConnect=0;fontColor=#232F3E;gradientColor=#60A337;gradientDirection=north;fillColor=#277116;strokeColor=#ffffff;dashed=0;verticalLabelPosition=bottom;verticalAlign=top;align=center;html=1;fontSize=12;fontStyle=0;aspect=fixed;shape=mxgraph.aws4.resourceIcon;resIcon=mxgraph.aws4.s3;" vertex="1" parent="1">
          <mxGeometry x="180" y="610" width="78" height="78" as="geometry" />
        </mxCell>
        <mxCell id="imLs1l-GsWlvEfnv6kaD-7" value="" style="group" vertex="1" connectable="0" parent="1">
          <mxGeometry x="310" y="220" width="220" height="168" as="geometry" />
        </mxCell>
        <mxCell id="imLs1l-GsWlvEfnv6kaD-8" value="microservice" style="points=[[0,0,0],[0.25,0,0],[0.5,0,0],[0.75,0,0],[1,0,0],[0,1,0],[0.25,1,0],[0.5,1,0],[0.75,1,0],[1,1,0],[0,0.25,0],[0,0.5,0],[0,0.75,0],[1,0.25,0],[1,0.5,0],[1,0.75,0]];outlineConnect=0;fontColor=#232F3E;gradientColor=#F78E04;gradientDirection=north;fillColor=#D05C17;strokeColor=#ffffff;dashed=0;verticalLabelPosition=bottom;verticalAlign=top;align=center;html=1;fontSize=12;fontStyle=0;aspect=fixed;shape=mxgraph.aws4.resourceIcon;resIcon=mxgraph.aws4.ec2;" vertex="1" parent="imLs1l-GsWlvEfnv6kaD-7">
          <mxGeometry x="60" y="90" width="78" height="78" as="geometry" />
        </mxCell>
        <mxCell id="imLs1l-GsWlvEfnv6kaD-9" value="" style="endArrow=classic;html=1;entryX=0.5;entryY=0;entryDx=0;entryDy=0;entryPerimeter=0;" edge="1" parent="imLs1l-GsWlvEfnv6kaD-7" target="imLs1l-GsWlvEfnv6kaD-8">
          <mxGeometry width="50" height="50" relative="1" as="geometry">
            <mxPoint x="99" as="sourcePoint" />
            <mxPoint x="70" y="-90" as="targetPoint" />
          </mxGeometry>
        </mxCell>
        <mxCell id="imLs1l-GsWlvEfnv6kaD-10" value="&lt;div align=&quot;left&quot;&gt;1) POST /uploadFile?filename=testFile&lt;/div&gt;" style="text;html=1;align=left;verticalAlign=middle;resizable=0;points=[];autosize=1;strokeColor=none;fillColor=#ffffff;" vertex="1" parent="imLs1l-GsWlvEfnv6kaD-7">
          <mxGeometry y="40" width="220" height="20" as="geometry" />
        </mxCell>
        <mxCell id="imLs1l-GsWlvEfnv6kaD-11" value="" style="group" vertex="1" connectable="0" parent="1">
          <mxGeometry x="180" y="450" width="78" height="78" as="geometry" />
        </mxCell>
        <mxCell id="imLs1l-GsWlvEfnv6kaD-12" value="" style="group" vertex="1" connectable="0" parent="imLs1l-GsWlvEfnv6kaD-11">
          <mxGeometry width="78" height="78" as="geometry" />
        </mxCell>
        <mxCell id="imLs1l-GsWlvEfnv6kaD-13" value="&lt;div&gt;my-awesome-bucket&lt;/div&gt;&lt;div&gt;&lt;b&gt;src_bucket&lt;/b&gt;&lt;br&gt;&lt;/div&gt;" style="points=[[0,0,0],[0.25,0,0],[0.5,0,0],[0.75,0,0],[1,0,0],[0,1,0],[0.25,1,0],[0.5,1,0],[0.75,1,0],[1,1,0],[0,0.25,0],[0,0.5,0],[0,0.75,0],[1,0.25,0],[1,0.5,0],[1,0.75,0]];outlineConnect=0;fontColor=#232F3E;gradientColor=#60A337;gradientDirection=north;fillColor=#277116;strokeColor=#ffffff;dashed=0;verticalLabelPosition=bottom;verticalAlign=top;align=center;html=1;fontSize=12;fontStyle=0;aspect=fixed;shape=mxgraph.aws4.resourceIcon;resIcon=mxgraph.aws4.s3;" vertex="1" parent="imLs1l-GsWlvEfnv6kaD-12">
          <mxGeometry width="78" height="78" as="geometry" />
        </mxCell>
        <mxCell id="imLs1l-GsWlvEfnv6kaD-14" style="edgeStyle=orthogonalEdgeStyle;rounded=0;orthogonalLoop=1;jettySize=auto;html=1;" edge="1" parent="1" source="imLs1l-GsWlvEfnv6kaD-8" target="imLs1l-GsWlvEfnv6kaD-13">
          <mxGeometry relative="1" as="geometry" />
        </mxCell>
        <mxCell id="imLs1l-GsWlvEfnv6kaD-15" value="&lt;font style=&quot;font-size: 12px&quot;&gt;2) putObject&lt;b&gt; testFile&lt;/b&gt;&lt;/font&gt;" style="edgeLabel;html=1;align=center;verticalAlign=middle;resizable=0;points=[];" vertex="1" connectable="0" parent="imLs1l-GsWlvEfnv6kaD-14">
          <mxGeometry x="-0.1574" y="2" relative="1" as="geometry">
            <mxPoint as="offset" />
          </mxGeometry>
        </mxCell>
      </root>
    </mxGraphModel>
  </diagram>
</mxfile>
